HIERARCHY
ROOT Hips
{
	OFFSET 0.00000 0.00000 0.00000
	CHANNELS 6 Xposition Yposition Zposition Zrotation Yrotation Xrotation 
	JOINT LHipJoint
	{
		OFFSET 0 0 0
		CHANNELS 3 Zrotation Yrotation Xrotation
		JOINT LeftHip
		{
			OFFSET 1.55020 -1.87941 0.79896
			CHANNELS 3 Zrotation Yrotation Xrotation
			JOINT LeftKnee
			{
				OFFSET 2.65269 -7.28822 0.00000
				CHANNELS 3 Zrotation Yrotation Xrotation
				JOINT LeftAnkle
				{
					OFFSET 2.61200 -7.17641 0.00000
					CHANNELS 3 Zrotation Yrotation Xrotation
					JOINT LeftToe
					{
						OFFSET 0.09338 -0.25656 1.92461
						CHANNELS 3 Zrotation Yrotation Xrotation
						End Site
						{
							OFFSET 0.00000 -0.00000 0.98480
						}
					}
				}
			}
		}
	}
	JOINT RHipJoint
	{
		OFFSET 0 0 0
		CHANNELS 3 Zrotation Yrotation Xrotation
		JOINT RightHip
		{
			OFFSET -1.56866 -1.87941 0.79895
			CHANNELS 3 Zrotation Yrotation Xrotation
			JOINT RightKnee
			{
				OFFSET -2.60199 -7.14892 0.00000
				CHANNELS 3 Zrotation Yrotation Xrotation
				JOINT RightAnkle
				{
					OFFSET -2.62841 -7.22151 0.00000
					CHANNELS 3 Zrotation Yrotation Xrotation
					JOINT RightToe
					{
						OFFSET -0.19532 -0.53663 1.93132
						CHANNELS 3 Zrotation Yrotation Xrotation
						End Site
						{
							OFFSET -0.00000 -0.00000 1.00896
						}
					}
				}
			}
		}
	}
	JOINT lowerback
	{
		OFFSET 0 0 0
		CHANNELS 3 Zrotation Yrotation Xrotation
		JOINT Chest
		{
			OFFSET 0.06381 2.07806 -0.22112
			CHANNELS 3 Zrotation Yrotation Xrotation
			JOINT Chest2
			{
				OFFSET -0.02881 2.08890 0.01825
				CHANNELS 3 Zrotation Yrotation Xrotation
				JOINT lowerneck
				{
					OFFSET 0 0 0
					CHANNELS 3 Zrotation Yrotation Xrotation
					JOINT Neck
					{
						OFFSET 0.02418 1.74325 -0.02023
						CHANNELS 3 Zrotation Yrotation Xrotation
						JOINT Head
						{
							OFFSET -0.01704 1.71677 0.04090
							CHANNELS 3 Zrotation Yrotation Xrotation
							End Site
							{
								OFFSET -0.00946 1.78238 0.01684
							}
						}
					}
				}
				JOINT LeftCollar
				{
					OFFSET 0 0 0
					CHANNELS 3 Zrotation Yrotation Xrotation
					JOINT LeftShoulder
					{
						OFFSET 3.39783 1.34157 0.16610
CHANNELS 3 Zrotation Xrotation Yrotation
						JOINT LeftElbow
						{
OFFSET 0 -5.152180 0.000000
CHANNELS 3 Zrotation Xrotation Yrotation
							JOINT LeftWrist
							{
OFFSET 0 -3.494590 0.000000
CHANNELS 3 Zrotation Xrotation Yrotation
								JOINT lhand
								{
									OFFSET 0 0 0
CHANNELS 3 Zrotation Xrotation Yrotation
									JOINT LFingers
									{
OFFSET 0 -0.512470 0.000000
CHANNELS 3 Zrotation Xrotation Yrotation
										End Site
										{
OFFSET 0 -0.413160 0.000000
										}
									}
								}
								JOINT LThumb
								{
OFFSET 0 0.000000 0.000000
CHANNELS 3 Zrotation Xrotation Yrotation
									End Site
									{
OFFSET 0 -0.419470 0.419470
									}
								}
							}
						}
					}
				}
				JOINT RightCollar
				{
					OFFSET 0 0 0
					CHANNELS 3 Zrotation Yrotation Xrotation
					JOINT RightShoulder
					{
						OFFSET -3.26224 1.05509 0.01188
CHANNELS 3 Zrotation Xrotation Yrotation
						JOINT RightElbow
						{
OFFSET 0 -5.443440 0.000000
CHANNELS 3 Zrotation Xrotation Yrotation
							JOINT RightWrist
							{
OFFSET 0 -3.584030 0.000000
CHANNELS 3 Zrotation Xrotation Yrotation
								JOINT rhand
								{
									OFFSET 0 0 0
CHANNELS 3 Zrotation Xrotation Yrotation
									JOINT RFingers
									{
OFFSET 0 -0.342490 0.000000
CHANNELS 3 Zrotation Xrotation Yrotation
										End Site
										{
OFFSET 0 -0.276120 0.000000
										}
									}
								}
								JOINT RThumb
								{
OFFSET 0 0.000000 0.000000
CHANNELS 3 Zrotation Xrotation Yrotation
									End Site
									{
OFFSET 0 -0.280340 0.280340
									}
								}
							}
						}
					}
				}
			}
		}
	}
}
MOTION
Frames: 12
Frame Time: 0.008333333333333333
-4.738598 16.789424 -0.251743 -536.679419 108.983678 -181.849631 0.000000 0.000000 0.000000 -24.749373 -8.082208 -0.588015 7.403160 15.661316 50.381680 -0.952184 -24.112920 -8.289052 3.243187 -9.359389 -27.959281 0.000000 0.000000 0.000000 8.906538 26.786532 -24.741403 -1.824647 -8.490013 24.213169 1.879656 24.233087 16.002020 -1.895457 8.610658 -24.607772 -1.019866 -4.892309 15.587931 -0.737884 -6.513747 3.786891 1.039432 -3.138672 -4.637762 11.440514 9.626763 3.598508 -2.698319 13.311889 9.007278 -2.519082 6.954951 3.395232 0.000000 0.000000 0.000000 26.026177 -19.656342 -12.289521 72.039467 -58.744942 44.511279 15.080764 -18.337600 -27.475946 0.000000 0.000000 0.000000 -7.125000 0.000000 0.000000 -16.886476 57.479026 5.259048 0.000000 0.000000 0.000000 -14.335339 24.923975 -9.319032 -27.515190 -38.664121 -9.820084 -20.420154 5.534618 33.976500 0.000000 0.000000 0.000000 7.125000 0.000000 0.000000 15.897968 65.033765 -7.793212
-4.887842 16.799476 -0.365721 -536.887871 110.194554 -181.854973 0.000000 0.000000 0.000000 -25.079803 -7.217952 -0.911482 7.074007 15.389830 49.146599 -1.297625 -24.825501 -6.621992 2.410047 -2.672479 -8.495506 0.000000 0.000000 0.000000 9.408957 25.762949 -25.714985 -1.758284 -8.342577 23.760077 1.547281 22.984272 17.942774 -1.709113 8.231444 -23.419694 -1.235626 -5.132741 15.846733 -0.574674 -6.868013 3.629271 1.428830 -3.306355 -4.889189 11.872726 9.809559 3.875818 -3.493394 13.661215 9.198448 -2.688997 7.120795 3.359547 0.000000 0.000000 0.000000 25.793190 -19.361381 -11.653912 71.596027 -58.680270 44.132352 15.736673 -18.238851 -27.404673 0.000000 0.000000 0.000000 -7.125000 0.000000 0.000000 -16.162629 57.549823 5.055534 0.000000 0.000000 0.000000 -14.133275 25.536904 -9.424839 -28.118274 -39.221664 -10.199604 -20.944001 6.586150 34.016092 0.000000 0.000000 0.000000 7.125000 0.000000 0.000000 15.315200 65.218584 -7.565374
-5.038049 16.817820 -0.481072 -536.413457 111.415633 -181.136848 0.000000 0.000000 0.000000 -25.654316 -6.789910 -1.326804 6.728276 15.096966 47.835791 -1.866348 -25.854414 -2.246403 1.034632 6.468738 18.150881 0.000000 0.000000 0.000000 9.674798 24.698105 -26.788590 -1.718012 -8.252127 23.482663 1.204518 21.416896 18.910793 -1.765232 8.345666 -23.777204 -1.655649 -5.343593 16.115927 -0.455061 -7.223069 3.401534 1.891821 -3.470296 -5.199141 12.320643 9.966451 4.255481 -4.360086 13.996357 9.324590 -2.885384 7.278065 3.288330 0.000000 0.000000 0.000000 25.533777 -18.961933 -11.038660 71.226980 -58.625464 43.817151 16.388205 -18.303029 -27.330387 0.000000 0.000000 0.000000 -7.125000 0.000000 0.000000 -15.437428 57.618583 4.844682 0.000000 0.000000 0.000000 -13.988290 26.083390 -9.476573 -28.666905 -39.722098 -10.547430 -21.432134 7.761563 33.987064 0.000000 0.000000 0.000000 7.125000 0.000000 0.000000 14.711512 65.327024 -7.300699
-5.185529 16.831009 -0.595481 -535.559240 112.663486 -179.983387 0.000000 0.000000 0.000000 -26.379262 -6.535854 -1.768306 6.422806 14.824233 46.652808 -1.826047 -26.362660 -3.792964 1.092204 6.640854 18.655913 0.000000 0.000000 0.000000 9.780437 23.684827 -28.003507 -1.730397 -8.280378 23.568888 0.853325 19.119615 18.326230 -2.113144 9.086612 -26.074485 -2.164029 -5.519391 16.314218 -0.395145 -7.555317 3.132148 2.334929 -3.619115 -5.506217 12.753040 10.109312 4.588934 -5.093401 14.296939 9.376607 -3.162938 7.428691 3.358623 0.000000 0.000000 0.000000 25.316608 -18.483947 -10.470163 70.982832 -58.588310 43.608752 17.057587 -18.527160 -27.560142 0.000000 0.000000 0.000000 -7.125000 0.000000 0.000000 -14.872279 57.987517 4.794875 0.000000 0.000000 0.000000 -13.830166 26.448106 -9.589442 -29.076407 -40.087617 -10.810121 -21.825167 9.110168 33.649929 0.000000 0.000000 0.000000 7.125000 0.000000 0.000000 13.941177 65.111194 -6.841859
-5.321938 16.843069 -0.705328 -535.343112 114.119935 -179.397800 0.000000 0.000000 0.000000 -26.787522 -6.208815 -2.385346 6.177199 14.595935 45.685134 -1.547270 -26.440645 -6.776327 0.725768 5.244502 14.653273 0.000000 0.000000 0.000000 10.035681 23.305383 -28.813634 -1.821300 -8.480887 24.185982 0.702886 16.961790 15.379868 -2.954205 10.519461 -30.777437 -2.388677 -5.643423 16.279055 -0.308168 -7.762868 2.949378 2.596861 -3.715554 -5.630528 13.067045 10.266420 4.834079 -5.804216 14.599623 9.330373 -3.414711 7.574499 3.406569 0.000000 0.000000 0.000000 25.141824 -18.018773 -9.843240 70.921397 -58.578934 43.556261 17.479525 -18.797521 -27.924126 0.000000 0.000000 0.000000 -7.125000 0.000000 0.000000 -14.647085 58.435993 4.879503 0.000000 0.000000 0.000000 -13.649338 26.624367 -9.591555 -29.525783 -40.481530 -11.101104 -22.374981 10.661014 33.605393 0.000000 0.000000 0.000000 7.125000 0.000000 0.000000 13.240186 65.222967 -6.523449
-5.455576 16.853984 -0.812778 -535.338736 115.644985 -179.001192 0.000000 0.000000 0.000000 -27.067444 -5.881576 -3.185460 5.999053 14.427317 44.977694 -1.266607 -26.287660 -9.343326 0.418645 4.119620 11.418335 0.000000 0.000000 0.000000 10.261760 23.346547 -29.449141 -1.960446 -8.778958 25.109051 0.589350 14.693538 11.932153 -3.562741 11.546048 -34.154859 -2.504285 -5.750041 16.150630 -0.223624 -7.924614 2.827684 2.773349 -3.793953 -5.654770 13.280091 10.448654 4.950719 -6.454515 14.911649 9.256494 -3.626547 7.720143 3.457754 0.000000 0.000000 0.000000 24.996013 -17.575247 -9.157738 70.949227 -58.583177 43.579968 17.801349 -19.070573 -28.219864 0.000000 0.000000 0.000000 -7.125000 0.000000 0.000000 -14.484784 58.796823 4.950774 0.000000 0.000000 0.000000 -13.443852 26.654944 -9.495084 -30.010078 -40.900496 -11.416763 -22.844074 12.069686 33.584446 0.000000 0.000000 0.000000 7.125000 0.000000 0.000000 12.658728 65.334182 -6.267144
-5.590872 16.862754 -0.917547 -535.378234 117.182710 -178.645045 0.000000 0.000000 0.000000 -27.263325 -5.613662 -4.332025 5.952526 14.382129 44.790784 -1.176499 -25.868852 -9.616394 0.618208 5.008514 13.937405 0.000000 0.000000 0.000000 10.286998 23.994574 -29.948884 -2.164427 -9.197096 26.416351 0.410005 12.015072 9.078626 -3.143867 10.916766 -32.008069 -2.560519 -5.852467 15.963854 -0.167792 -8.065935 2.798563 2.869549 -3.866990 -5.560846 13.319789 10.686509 4.795541 -6.961154 15.246976 9.189147 -3.752537 7.869296 3.535946 0.000000 0.000000 0.000000 24.893052 -17.179201 -8.363236 71.066313 -58.601118 43.679917 18.057949 -19.312914 -28.222676 0.000000 0.000000 0.000000 -7.125000 0.000000 0.000000 -14.212117 58.857609 4.875996 0.000000 0.000000 0.000000 -13.190934 26.449825 -9.225363 -30.555211 -41.363286 -11.775320 -22.968323 12.931602 33.386691 0.000000 0.000000 0.000000 7.125000 0.000000 0.000000 12.340606 65.175188 -6.062025
-5.728720 16.860950 -1.018982 -535.365644 118.626157 -178.286815 0.000000 0.000000 0.000000 -27.502855 -5.659936 -5.484008 5.961160 14.390591 44.825659 -1.054149 -25.056477 -9.739660 0.783966 5.636141 15.736583 0.000000 0.000000 0.000000 10.252337 24.689635 -30.438002 -2.477947 -9.782433 28.287908 0.253005 8.996949 5.668240 -2.533261 9.843183 -28.517857 -2.463566 -5.935933 15.655403 -0.240666 -8.153502 2.939558 2.711253 -3.922838 -5.263940 13.336517 10.901915 4.431807 -7.278666 15.507454 9.104560 -3.810085 7.978916 3.620492 0.000000 0.000000 0.000000 24.996979 -17.012284 -7.661917 71.170847 -58.617028 43.769188 18.274546 -19.446289 -28.013182 0.000000 0.000000 0.000000 -7.125000 0.000000 0.000000 -13.854028 58.700568 4.698973 0.000000 0.000000 0.000000 -12.605911 25.857649 -9.251547 -30.984606 -41.721225 -12.060070 -22.859068 13.384532 32.882301 0.000000 0.000000 0.000000 7.125000 0.000000 0.000000 12.062694 64.648096 -5.777890
-5.865392 16.858699 -1.117202 -535.813419 120.156711 -178.391603 0.000000 0.000000 0.000000 -27.452136 -5.684175 -6.628153 5.994434 14.422902 44.959371 -0.837950 -23.986279 -10.443827 0.746358 5.292903 14.791233 0.000000 0.000000 0.000000 10.574923 25.414670 -30.825581 -2.850043 -10.436399 30.413525 0.117889 6.006250 2.171687 -1.978252 8.811787 -25.214158 -2.000669 -5.962929 15.239390 -0.350483 -8.106578 3.223381 2.270573 -3.918801 -4.818750 13.396879 11.077231 3.990102 -7.537984 15.696033 8.960319 -3.857359 8.052612 3.691797 0.000000 0.000000 0.000000 25.251275 -17.017459 -7.057692 71.231890 -58.626306 43.821327 18.384688 -19.488155 -27.793674 0.000000 0.000000 0.000000 -7.125000 0.000000 0.000000 -13.604014 58.509690 4.548298 0.000000 0.000000 0.000000 -11.766495 25.064795 -9.481869 -31.379464 -42.046058 -12.323461 -22.788735 13.770069 32.370773 0.000000 0.000000 0.000000 7.125000 0.000000 0.000000 11.739102 64.123627 -5.476602
-5.997274 16.862917 -1.209720 -537.457586 121.974265 -179.663556 0.000000 0.000000 0.000000 -26.639358 -5.427308 -7.748677 6.050133 14.476725 45.182632 -0.408632 -22.549642 -12.718012 0.221041 2.693098 7.453402 0.000000 0.000000 0.000000 11.839914 26.181390 -30.965161 -3.290942 -11.143069 32.773534 0.021824 3.328521 -1.141885 -1.700899 8.205668 -23.344789 -0.726507 -5.861373 14.639965 -0.460875 -7.759669 3.744614 1.301746 -3.776342 -4.146021 13.583589 11.167740 3.501872 -7.786617 15.757355 8.678280 -3.927919 8.064260 3.725202 0.000000 0.000000 0.000000 25.735555 -17.291330 -6.630985 71.192460 -58.620348 43.787654 18.255551 -19.377896 -27.701424 0.000000 0.000000 0.000000 -7.125000 0.000000 0.000000 -13.687427 58.390060 4.537386 0.000000 0.000000 0.000000 -10.525135 24.044688 -10.013612 -31.770489 -42.362841 -12.586086 -22.984080 14.279654 32.061488 0.000000 0.000000 0.000000 7.125000 0.000000 0.000000 11.271625 63.870107 -5.188872
-6.112221 16.887033 -1.314992 -535.798391 123.590189 -178.076159 0.000000 0.000000 0.000000 -27.990382 -5.563382 -8.534260 6.028618 14.455982 45.096355 -0.026414 -20.863320 -14.526276 0.052310 0.976553 2.689356 0.000000 0.000000 0.000000 11.055254 25.916828 -31.592943 -3.822020 -11.897898 35.400955 -0.042648 1.763255 -3.602256 -1.479061 7.672898 -21.730448 -2.012424 -6.020774 15.651419 -0.322325 -8.223042 2.997371 2.401040 -3.949084 -5.263362 13.491137 11.550112 4.196651 -8.484184 16.443150 8.967741 -4.107762 8.406139 3.826294 0.000000 0.000000 0.000000 24.919976 -15.119804 -5.454221 71.914993 -58.725261 44.405180 17.990935 -19.200005 -27.642991 0.000000 0.000000 0.000000 -7.125000 0.000000 0.000000 -13.934368 58.273869 4.581830 0.000000 0.000000 0.000000 -11.602692 24.276229 -8.038251 -32.261325 -42.752392 -12.918621 -23.322207 14.507167 31.903823 0.000000 0.000000 0.000000 7.125000 0.000000 0.000000 10.752127 63.804616 -4.929985
-6.220474 16.919799 -1.422173 -534.027523 125.276848 -176.450244 0.000000 0.000000 0.000000 -29.447899 -5.626114 -9.195529 5.977465 14.406362 44.890886 0.311635 -19.189686 -16.072729 0.004649 -0.247281 -0.679630 0.000000 0.000000 0.000000 10.218289 25.522290 -32.180589 -4.389151 -12.648404 38.086264 -0.096344 0.703935 -5.614813 -1.298534 7.216481 -20.359544 -3.327029 -6.156011 16.687912 -0.199976 -8.655340 2.266690 3.492928 -4.109573 -6.379124 13.332937 11.947740 4.901568 -9.180857 17.148344 9.237193 -4.277407 8.755958 3.917510 0.000000 0.000000 0.000000 24.053560 -12.928283 -4.273038 72.600105 -58.824547 44.990759 17.770024 -19.016985 -27.546356 0.000000 0.000000 0.000000 -7.125000 0.000000 0.000000 -14.112415 58.129962 4.593382 0.000000 0.000000 0.000000 -12.761151 24.452955 -5.894472 -32.768635 -43.150278 -13.263978 -23.687065 14.725097 31.749860 0.000000 0.000000 0.000000 7.125000 0.000000 0.000000 10.206805 63.749119 -4.664656
